<svg width="32" height="33" viewBox="0 0 32 33" fill="none" xmlns="http://www.w3.org/2000/svg">
<g clip-path="url(#clip0)">
<path d="M15.9382 7.06213C10.8672 7.06213 6.74219 11.1869 6.74219 16.2582C6.74219 21.3292 10.8672 25.4542 15.9382 25.4542C21.0095 25.4542 25.1343 21.3292 25.1343 16.2582C25.1343 11.1869 21.0095 7.06213 15.9382 7.06213V7.06213ZM15.9382 23.5255C11.9312 23.5255 8.6709 20.2653 8.6709 16.2582C8.6709 12.2511 11.9312 8.99085 15.9382 8.99085C19.9453 8.99085 23.2056 12.2511 23.2056 16.2582C23.2056 20.2653 19.9453 23.5255 15.9382 23.5255V23.5255Z" fill="#E83F5B"/>
<path d="M16.9023 3.90744V1.21457C16.9023 -0.059845 14.9736 -0.0610657 14.9736 1.21457V3.90744C14.9736 5.18186 16.9023 5.18308 16.9023 3.90744Z" fill="#E83F5B"/>
<path d="M14.9736 28.6089V31.302C14.9736 32.5764 16.9023 32.5777 16.9023 31.302V28.6089C16.9023 27.3347 14.9736 27.3335 14.9736 28.6089Z" fill="#E83F5B"/>
<path d="M25.3525 8.20679L27.2566 6.30249C28.1577 5.40161 26.7952 4.03662 25.8928 4.93872L23.9888 6.84302C23.0705 7.76123 24.4697 9.0896 25.3525 8.20679V8.20679Z" fill="#E83F5B"/>
<path d="M6.52183 24.3095L4.61753 26.2138C3.69956 27.1321 5.09873 28.4604 5.9813 27.5776L7.8856 25.6736C8.78843 24.7707 7.42246 23.4089 6.52183 24.3095V24.3095Z" fill="#E83F5B"/>
<path d="M30.9813 15.2939H28.2882C27.014 15.2939 27.0126 17.2227 28.2882 17.2227H30.9813C32.2557 17.2227 32.257 15.2939 30.9813 15.2939V15.2939Z" fill="#E83F5B"/>
<path d="M3.58664 15.2939H0.893769C-0.380646 15.2939 -0.381866 17.2227 0.893769 17.2227H3.58664C4.86105 17.2227 4.86228 15.2939 3.58664 15.2939Z" fill="#E83F5B"/>
<path d="M25.3531 24.3096C24.4522 23.4087 23.087 24.7713 23.9894 25.6736L25.8934 27.5777C26.7906 28.4749 28.1683 27.1248 27.2572 26.2139L25.3531 24.3096Z" fill="#E83F5B"/>
<path d="M6.52236 8.20675C7.42202 9.10641 8.78652 7.74337 7.88613 6.84298L5.98183 4.93869C5.08095 4.03756 3.71621 5.4006 4.61806 6.30246L6.52236 8.20675Z" fill="#E83F5B"/>
</g>
<defs>
<clipPath id="clip0">
<rect width="32" height="32" fill="white" transform="translate(0 0.258301)"/>
</clipPath>
</defs>
</svg>
