<svg width="32" height="32" viewBox="0 0 32 32" fill="none" xmlns="http://www.w3.org/2000/svg">
<g clip-path="url(#clip0)">
<path d="M15.9993 6.80835C10.9309 6.80835 6.80762 10.9316 6.80762 16C6.80762 21.0684 10.9309 25.1917 15.9993 25.1917C21.0676 25.1917 25.1909 21.0684 25.1909 16C25.1909 10.9316 21.0676 6.80835 15.9993 6.80835Z" fill="#E83F5B"/>
<path d="M16 4.61939C16.5322 4.61939 16.9639 4.18774 16.9639 3.65552V0.963867C16.9639 0.431641 16.5322 0 16 0C15.4678 0 15.0361 0.431641 15.0361 0.963867V3.65552C15.0361 4.18774 15.4678 4.61939 16 4.61939Z" fill="#E83F5B"/>
<path d="M16 27.3806C15.4678 27.3806 15.0361 27.8123 15.0361 28.3445V31.0361C15.0361 31.5684 15.4678 32 16 32C16.5322 32 16.9639 31.5684 16.9639 31.0361V28.3445C16.9639 27.8123 16.5322 27.3806 16 27.3806V27.3806Z" fill="#E83F5B"/>
<path d="M25.411 7.95263L27.3143 6.04932C27.6908 5.67309 27.6908 5.06274 27.3143 4.68628C26.9379 4.30981 26.3275 4.30981 25.9513 4.68628L24.048 6.5896C23.6715 6.96606 23.6715 7.57617 24.048 7.95263C24.4242 8.3291 25.0345 8.3291 25.411 7.95263V7.95263Z" fill="#E83F5B"/>
<path d="M6.58996 24.0474L4.68665 25.9507C4.31018 26.3269 4.31018 26.9373 4.68665 27.3137C5.06311 27.6899 5.67346 27.6902 6.04968 27.3137L7.953 25.4104C8.32947 25.0339 8.32947 24.4238 7.953 24.0474C7.57654 23.6709 6.96643 23.6709 6.58996 24.0474V24.0474Z" fill="#E83F5B"/>
<path d="M31.0364 15.0363H28.3447C27.8123 15.0363 27.3809 15.4679 27.3809 16.0001C27.3809 16.5324 27.8123 16.964 28.3447 16.964H31.0364C31.5686 16.964 32.0002 16.5324 32.0002 16.0001C32.0002 15.4679 31.5686 15.0363 31.0364 15.0363Z" fill="#E83F5B"/>
<path d="M3.65552 15.0363H0.963867C0.431641 15.0363 0 15.4679 0 16.0001C0 16.5324 0.431641 16.964 0.963867 16.964H3.65552C4.18774 16.964 4.61939 16.5324 4.61939 16.0001C4.61939 15.4679 4.18774 15.0363 3.65552 15.0363Z" fill="#E83F5B"/>
<path d="M25.411 24.0474C25.0345 23.6709 24.4244 23.6709 24.048 24.0474C23.6715 24.4238 23.6715 25.0339 24.048 25.4104L25.9513 27.3137C26.3275 27.6899 26.9379 27.6902 27.3143 27.3137C27.6908 26.9373 27.6908 26.3269 27.3143 25.9507L25.411 24.0474Z" fill="#E83F5B"/>
<path d="M6.58996 7.95263C6.96643 8.3291 7.57654 8.3291 7.953 7.95263C8.32947 7.57617 8.32947 6.96606 7.953 6.5896L6.04968 4.68628C5.67346 4.30981 5.06311 4.30981 4.68665 4.68628C4.31018 5.06274 4.31018 5.67309 4.68665 6.04932L6.58996 7.95263Z" fill="#E83F5B"/>
</g>
<defs>
<clipPath id="clip0">
<rect width="32" height="32" fill="white"/>
</clipPath>
</defs>
</svg>
