<svg width="32" height="32" viewBox="0 0 32 32" fill="none" xmlns="http://www.w3.org/2000/svg">
<g clip-path="url(#clip0)">
<path d="M12.5906 16C10.3853 16 8.59058 17.7947 8.59058 20C8.59058 22.2053 10.3853 24 12.5906 24C14.7959 24 16.5906 22.2053 16.5906 20C16.5906 17.7947 14.796 16 12.5906 16ZM12.5906 22.6667C11.1199 22.6667 9.92389 21.4707 9.92389 20C9.92389 18.5293 11.1199 17.3333 12.5906 17.3333C14.0613 17.3333 15.2573 18.5293 15.2573 20C15.2573 21.4707 14.0613 22.6667 12.5906 22.6667Z" fill="#E83F5B"/>
<path d="M23.8172 22.4547L21.7159 20.808C21.7412 20.5427 21.7572 20.272 21.7572 20.0013C21.7572 19.7266 21.7412 19.4533 21.7145 19.1786L23.8359 17.5146C24.3052 17.1173 24.4185 16.4533 24.1119 15.9426L21.8399 12.0159C21.5305 11.5026 20.9012 11.2812 20.3225 11.4972L17.8519 12.4906C17.4079 12.1732 16.9452 11.9039 16.4519 11.6719L16.0772 9.01188C15.9679 8.436 15.4439 8 14.8559 8H10.3226C9.73061 8 9.20529 8.44531 9.09461 9.05869L8.7253 11.6907C8.22798 11.9267 7.75998 12.2 7.32661 12.5067L4.8413 11.5067C4.2813 11.2974 3.6493 11.516 3.33461 12.04L1.07461 15.9507C0.762608 16.4694 0.87592 17.1347 1.36392 17.5467L3.46523 19.1934C3.43992 19.4587 3.42392 19.7294 3.42392 20.0001C3.42392 20.2747 3.43992 20.5481 3.46661 20.8227L1.34392 22.4854C0.874608 22.8827 0.761233 23.5467 1.06792 24.0574L3.33992 27.9841C3.64923 28.4988 4.27861 28.7188 4.85723 28.5028L7.32792 27.5095C7.77192 27.8268 8.23461 28.0962 8.72792 28.3282L9.10261 30.9882C9.21192 31.5642 9.73592 32.0002 10.3239 32.0002H14.8572C15.4492 32.0002 15.9745 31.5549 16.0852 30.9415L16.4545 28.3095C16.9519 28.0735 17.4199 27.8002 17.8532 27.4935L20.3385 28.4935C20.8999 28.7042 21.5319 28.4842 21.8452 27.9602L24.1065 24.0509C24.4185 23.532 24.3052 22.8667 23.8172 22.4547ZM20.7359 27.2147L18.0039 26.116C17.7839 26.0253 17.5332 26.0627 17.3452 26.208C16.8239 26.6147 16.2305 26.9613 15.5825 27.2387C15.3692 27.3307 15.2172 27.528 15.1852 27.7587L14.8572 30.6667H10.4025L9.99723 27.7747C9.96392 27.5427 9.81192 27.344 9.59454 27.2534C8.95586 26.9867 8.38123 26.6494 7.83586 26.2254C7.64917 26.0801 7.39717 26.0441 7.17717 26.1334L4.44517 27.2334L2.26248 23.4614L4.58248 21.6427C4.7678 21.4974 4.86248 21.2654 4.83317 21.032C4.78786 20.688 4.75717 20.344 4.75717 20C4.75717 19.6573 4.78786 19.316 4.83186 18.988C4.86255 18.7547 4.76917 18.52 4.58255 18.3747L2.26255 16.556L4.44523 12.784L7.17723 13.8827C7.39455 13.972 7.64792 13.936 7.83592 13.7907C8.35723 13.384 8.95061 13.0374 9.59861 12.76C9.81192 12.668 9.96261 12.472 9.99592 12.2413L10.3226 9.33331H14.7786L15.1839 12.2253C15.2172 12.4573 15.3692 12.656 15.5866 12.7466C16.2253 13.0133 16.7999 13.3506 17.3453 13.7746C17.5346 13.9213 17.7866 13.9573 18.004 13.8666L20.736 12.7653L22.9187 16.5373L20.5987 18.356C20.4134 18.5013 20.3187 18.7333 20.348 18.9667C20.3933 19.3107 20.424 19.6547 20.424 19.9987C20.424 20.3414 20.3933 20.6827 20.3493 21.0107C20.3186 21.244 20.412 21.4787 20.5986 21.624L22.9186 23.4427L20.7359 27.2147Z" fill="#E83F5B"/>
<path d="M24.5903 4C23.1196 4 21.9236 5.196 21.9236 6.66669C21.9236 8.13738 23.1196 9.33338 24.5903 9.33338C26.061 9.33338 27.257 8.13738 27.257 6.66669C27.257 5.196 26.061 4 24.5903 4ZM24.5903 8C23.8556 8 23.257 7.40131 23.257 6.66669C23.257 5.932 23.8556 5.33338 24.5903 5.33338C25.3249 5.33338 25.9236 5.93206 25.9236 6.66669C25.9236 7.40131 25.325 8 24.5903 8Z" fill="#E83F5B"/>
<path d="M30.769 7.752C30.7583 7.74269 30.7463 7.73331 30.7357 7.724L29.745 6.956C29.753 6.86131 29.757 6.76531 29.757 6.66669C29.757 6.56669 29.7543 6.46937 29.749 6.37069L30.7583 5.57869C31.1023 5.272 31.1903 4.77869 30.9636 4.364L29.7716 2.30269C29.549 1.89337 29.057 1.70669 28.565 1.872L27.4156 2.33469C27.249 2.224 27.0823 2.12669 26.913 2.04269L26.7423 0.864C26.7037 0.38 26.285 0 25.7903 0H23.3903C22.921 0 22.5103 0.348 22.429 0.825312L22.253 2.05331C22.077 2.14262 21.9103 2.23731 21.7543 2.33862L20.581 1.86662C20.1463 1.70931 19.6703 1.87194 19.4037 2.29062L18.197 4.38C17.9663 4.80131 18.0637 5.304 18.4423 5.608L19.4303 6.38131C19.4263 6.47462 19.4236 6.56931 19.4236 6.66662C19.4236 6.76394 19.4263 6.85862 19.4303 6.95331L18.4116 7.752C18.0663 8.05869 17.9783 8.55331 18.205 8.96931L19.397 11.0306C19.621 11.4399 20.1143 11.6279 20.6036 11.4613L21.753 10.9986C21.9196 11.1093 22.0863 11.2066 22.2556 11.2906L22.433 12.5253C22.5116 12.9933 22.9143 13.3333 23.3903 13.3333H25.7903C26.2583 13.3333 26.6703 12.9853 26.7516 12.5093L26.9276 11.28C27.1036 11.192 27.2676 11.0973 27.4196 10.9973L28.5983 11.4693C29.0303 11.6253 29.5103 11.4626 29.777 11.0453L30.985 8.95331C31.2023 8.552 31.1143 8.05731 30.769 7.752ZM28.7783 10.1053L27.573 9.624C27.3503 9.536 27.0983 9.572 26.909 9.72269C26.681 9.90537 26.393 10.072 26.0517 10.22C25.8397 10.312 25.6904 10.5067 25.657 10.736L25.4757 12H23.7037L23.5237 10.7347C23.489 10.496 23.3277 10.2947 23.1037 10.208C22.8184 10.0987 22.5384 9.936 22.249 9.71331C22.061 9.56931 21.813 9.536 21.593 9.624L20.4023 10.1053L19.5183 8.57731L20.537 7.78C20.7223 7.63469 20.817 7.404 20.7877 7.172C20.7664 7.00669 20.757 6.84131 20.757 6.66669C20.757 6.49206 20.7663 6.32669 20.7863 6.16137C20.8156 5.92806 20.721 5.69737 20.5356 5.55337L19.517 4.75606L20.3996 3.22806L21.5916 3.70806C21.8103 3.79737 22.0596 3.76137 22.2476 3.61875C22.493 3.43075 22.789 3.26006 23.1276 3.11344C23.3396 3.02144 23.489 2.82675 23.5223 2.59744L23.7036 1.33344H25.4636L25.6463 2.60012C25.6796 2.83881 25.841 3.04012 26.065 3.12681C26.3503 3.23612 26.6303 3.39881 26.9197 3.6215C27.1064 3.7655 27.3544 3.80019 27.5757 3.71081L28.7664 3.2295L29.6504 4.7575L28.6317 5.55481C28.4357 5.70681 28.341 5.95612 28.3864 6.2015C28.4157 6.3535 28.4237 6.5055 28.4237 6.66681C28.4237 6.8415 28.401 7.00681 28.3797 7.17081C28.3504 7.40412 28.4464 7.63612 28.6317 7.78012L29.6597 8.57744L28.7783 10.1053Z" fill="#E83F5B"/>
</g>
<defs>
<clipPath id="clip0">
<rect width="32" height="32" fill="white"/>
</clipPath>
</defs>
</svg>
