<svg width="32" height="32" viewBox="0 0 32 32" fill="none" xmlns="http://www.w3.org/2000/svg">
<g clip-path="url(#clip0)">
<path d="M21.1145 21.3056C21.4806 21.6718 22.0742 21.6718 22.4403 21.3056L26.4201 17.3259L30.3998 21.3056C30.7659 21.6717 31.3595 21.6718 31.7256 21.3056C32.0918 20.9395 32.0918 20.346 31.7256 19.9798L27.7458 16.0001L31.7256 12.0203C32.0917 11.6542 32.0917 11.0606 31.7256 10.6945C31.3595 10.3284 30.7659 10.3284 30.3998 10.6945L26.42 14.6743L22.4402 10.6945C22.0741 10.3284 21.4805 10.3284 21.1144 10.6945C20.7483 11.0606 20.7483 11.6542 21.1144 12.0203L25.0942 16.0001L21.1144 19.9798C20.7484 20.346 20.7484 20.9395 21.1145 21.3056V21.3056Z" fill="#E83F5B"/>
<path d="M16.3623 3.35984L5.84119 9.15177H0.9375C0.41975 9.15177 0 9.57152 0 10.0893V21.9108C0 22.4286 0.41975 22.8483 0.9375 22.8483H5.84119L16.3623 28.6403C17.5433 29.2903 18.9881 28.4361 18.9881 27.0884V4.91171C18.9881 3.56465 17.5439 2.7094 16.3623 3.35984V3.35984ZM1.875 11.0268H5.14469V20.9733H1.875V11.0268ZM17.1131 26.9132L7.01969 21.3567V10.6433L17.1131 5.08684V26.9132Z" fill="#E83F5B"/>
</g>
<defs>
<clipPath id="clip0">
<rect width="32" height="32" fill="white"/>
</clipPath>
</defs>
</svg>
