<svg width="32" height="32" viewBox="0 0 32 32" fill="none" xmlns="http://www.w3.org/2000/svg">
<g clip-path="url(#clip0)">
<path d="M14.6665 24C14.6665 24.736 15.2638 25.3333 15.9998 25.3333C16.7358 25.3333 17.3332 24.736 17.3332 24V7.99996C17.3332 7.26396 16.7358 6.66663 15.9998 6.66663C15.2638 6.66663 14.6665 7.26396 14.6665 7.99996V24Z" fill="#E83F5B"/>
<path d="M1.33333 8C0.597331 8 0 8.59733 0 9.33333V22.6667C0 23.4027 0.597331 24 1.33333 24C2.06934 24 2.66667 23.4027 2.66667 22.6667V9.33333C2.66667 8.59733 2.06934 8 1.33333 8Z" fill="#E83F5B"/>
<path d="M12.6667 21.3334V10.6667C12.6667 9.9307 12.0693 9.33337 11.3333 9.33337C10.5973 9.33337 10 9.9307 10 10.6667V21.3334C10 22.0694 10.5973 22.6667 11.3333 22.6667C12.0693 22.6667 12.6667 22.0694 12.6667 21.3334Z" fill="#E83F5B"/>
<path d="M6.66683 20C7.40283 20 8.00016 19.4027 8.00016 18.6667V13.3333C8.00016 12.5973 7.40283 12 6.66683 12C5.93083 12 5.3335 12.5973 5.3335 13.3333V18.6667C5.3335 19.4027 5.93083 20 6.66683 20Z" fill="#E83F5B"/>
<path d="M22.0002 21.3334V10.6667C22.0002 9.9307 21.4028 9.33337 20.6668 9.33337C19.9308 9.33337 19.3335 9.9307 19.3335 10.6667V21.3334C19.3335 22.0694 19.9308 22.6667 20.6668 22.6667C21.4028 22.6667 22.0002 22.0694 22.0002 21.3334Z" fill="#E83F5B"/>
<path d="M30.6668 8C29.9308 8 29.3335 8.59733 29.3335 9.33333V22.6667C29.3335 23.4027 29.9308 24 30.6668 24C31.4028 24 32.0002 23.4027 32.0002 22.6667V9.33333C32.0002 8.59733 31.4028 8 30.6668 8Z" fill="#E83F5B"/>
<path d="M25.3333 12C24.5973 12 24 12.5973 24 13.3333V18.6667C24 19.4027 24.5973 20 25.3333 20C26.0693 20 26.6667 19.4027 26.6667 18.6667V13.3333C26.6667 12.5973 26.0693 12 25.3333 12Z" fill="#E83F5B"/>
<path d="M14.6665 30.6667C14.6665 31.4027 15.2638 32 15.9998 32C16.7358 32 17.3332 31.4027 17.3332 30.6667V29.3333C17.3332 28.5973 16.7358 28 15.9998 28C15.2638 28 14.6665 28.5973 14.6665 29.3333V30.6667Z" fill="#E83F5B"/>
<path d="M15.9998 4C16.7358 4 17.3332 3.40267 17.3332 2.66667V1.33333C17.3332 0.597331 16.7358 0 15.9998 0C15.2638 0 14.6665 0.597331 14.6665 1.33333V2.66667C14.6665 3.40267 15.2638 4 15.9998 4Z" fill="#E83F5B"/>
</g>
<defs>
<clipPath id="clip0">
<rect width="32" height="32" fill="white"/>
</clipPath>
</defs>
</svg>
